<svg width="83" height="81" viewBox="0 0 83 81" fill="none" xmlns="http://www.w3.org/2000/svg">
<path d="M74.5575 40.5L80.1779 34.7358L73.1599 30.7895L76.9281 23.6756L69.0925 21.8646L70.6912 13.9788L62.6547 14.4516L61.9695 6.42875L54.408 9.14641L51.5077 1.63973L44.9944 6.38308L40.0889 0L35.1834 6.3945L28.6702 1.63973L25.7698 9.14641L18.1923 6.42875L17.5072 14.4516L9.48669 13.9788L11.0853 21.8646L3.24292 23.6756L7.01111 30.7895L0 34.7358L5.62031 40.5L0 46.2642L7.01796 50.2105L3.24977 57.3244L11.0853 59.1354L9.48669 67.0212L17.5232 66.5484L18.2083 74.5713L25.7858 71.8536L28.6702 79.3603L35.1743 74.6169L40.0889 81L44.9944 74.6169L51.5077 79.3603L54.4172 71.8536L61.9947 74.5713L62.6798 66.5484L70.6912 67.0212L69.0925 59.1354L76.9349 57.3244L73.1667 50.2105L80.1847 46.2642L74.5575 40.5ZM55.0109 58.9984H49.8839L31.0864 31.872H30.7438V58.9984H25.1669V22.0016H30.3282L49.1463 49.1554H49.4843V22.0016H55.0109V58.9984Z" fill="white"/>
<path d="M74.4839 8.00774C74.4704 7.87155 74.4259 7.74024 74.3539 7.62387C74.2819 7.50749 74.1842 7.40914 74.0683 7.33632C73.8005 7.17386 73.4905 7.09439 73.1776 7.10795C72.9467 7.10244 72.7173 7.14522 72.5039 7.23355C72.3236 7.30451 72.1658 7.42287 72.0472 7.57612C71.9416 7.72048 71.8855 7.89512 71.8873 8.07397C71.8837 8.21468 71.9227 8.35318 71.9992 8.47135C72.0768 8.57911 72.1755 8.67001 72.2892 8.73854C72.4055 8.81153 72.5296 8.87128 72.6592 8.91668C72.7871 8.96235 72.9058 9.00118 73.0132 9.02858L73.6047 9.18844C73.7765 9.23428 73.9457 9.28916 74.1117 9.35287C74.3015 9.42595 74.4817 9.52181 74.6483 9.63834C74.8203 9.75921 74.965 9.91481 75.0731 10.0951C75.1893 10.3043 75.2468 10.541 75.2398 10.7802C75.2427 11.0822 75.1569 11.3783 74.9932 11.6321C74.8173 11.8971 74.5693 12.1063 74.2784 12.235C73.92 12.3969 73.5295 12.475 73.1365 12.4633C72.7662 12.4716 72.3983 12.4023 72.0563 12.2601C71.7712 12.1415 71.524 11.9472 71.3415 11.6983C71.1665 11.453 71.0643 11.1632 71.0469 10.8624H71.7754C71.788 11.0642 71.8685 11.2558 72.0038 11.406C72.1387 11.5523 72.3084 11.6622 72.4971 11.7257C72.7051 11.7962 72.9237 11.831 73.1434 11.8285C73.3911 11.8326 73.6371 11.7875 73.8673 11.696C74.0659 11.6205 74.2409 11.4936 74.3743 11.3283C74.4995 11.1707 74.5664 10.9746 74.5638 10.7734C74.5707 10.6018 74.5128 10.4339 74.4017 10.3029C74.2825 10.1742 74.1368 10.0729 73.9746 10.006C73.7893 9.92624 73.5985 9.85984 73.4037 9.80734L72.6889 9.60408C72.289 9.50622 71.9175 9.31617 71.6041 9.04913C71.473 8.92905 71.3695 8.78189 71.3009 8.61785C71.2323 8.4538 71.2001 8.27679 71.2067 8.0991C71.2003 7.79322 71.2933 7.49351 71.4717 7.24497C71.6568 6.99688 71.9031 6.80097 72.1865 6.67632C72.5066 6.5362 72.8533 6.46687 73.2027 6.47307C73.5458 6.46671 73.8862 6.53448 74.2007 6.67175C74.4719 6.7923 74.7078 6.98019 74.8859 7.21757C75.0561 7.44561 75.151 7.72098 75.1576 8.00546L74.4839 8.00774Z" fill="white"/>
<path d="M76.4004 6.55273H77.2408L79.2163 11.3783H79.2848L81.2602 6.55273H82.1098V12.3672H81.4498V7.95039H81.3927L79.5771 12.3672H78.9354L77.1084 7.95039H77.0513V12.3672H76.4004V6.55273Z" fill="white"/>
</svg>
